<?xml version="1.0" encoding="utf-8" standalone="no"?>
<!DOCTYPE svg PUBLIC "-//W3C//DTD SVG 1.1//EN"
  "http://www.w3.org/Graphics/SVG/1.1/DTD/svg11.dtd">
<!-- Created with matplotlib (https://matplotlib.org/) -->
<svg height="345.6pt" version="1.1" viewBox="0 0 460.8 345.6" width="460.8pt" xmlns="http://www.w3.org/2000/svg" xmlns:xlink="http://www.w3.org/1999/xlink">
 <metadata>
  <rdf:RDF xmlns:cc="http://creativecommons.org/ns#" xmlns:dc="http://purl.org/dc/elements/1.1/" xmlns:rdf="http://www.w3.org/1999/02/22-rdf-syntax-ns#">
   <cc:Work>
    <dc:type rdf:resource="http://purl.org/dc/dcmitype/StillImage"/>
    <dc:date>2020-11-17T16:51:16.582415</dc:date>
    <dc:format>image/svg+xml</dc:format>
    <dc:creator>
     <cc:Agent>
      <dc:title>Matplotlib v3.3.3, https://matplotlib.org/</dc:title>
     </cc:Agent>
    </dc:creator>
   </cc:Work>
  </rdf:RDF>
 </metadata>
 <defs>
  <style type="text/css">*{stroke-linecap:butt;stroke-linejoin:round;}</style>
 </defs>
 <g id="figure_1">
  <g id="patch_1">
   <path d="M 0 345.6 
L 460.8 345.6 
L 460.8 0 
L 0 0 
z
" style="fill:#ffffff;"/>
  </g>
  <g id="axes_1">
   <g id="patch_2">
    <path d="M 57.6 307.584 
L 414.72 307.584 
L 414.72 41.472 
L 57.6 41.472 
z
" style="fill:#ffffff;"/>
   </g>
   <g id="matplotlib.axis_1">
    <g id="xtick_1">
     <g id="line2d_1">
      <defs>
       <path d="M 0 0 
L 0 3.5 
" id="m34a026d8e9" style="stroke:#000000;stroke-width:0.8;"/>
      </defs>
      <g>
       <use style="stroke:#000000;stroke-width:0.8;" x="109.94558" xlink:href="#m34a026d8e9" y="307.584"/>
      </g>
     </g>
     <g id="text_1">
      <!-- 0.2 -->
      <g transform="translate(101.994017 322.182437)scale(0.1 -0.1)">
       <defs>
        <path d="M 31.78125 66.40625 
Q 24.171875 66.40625 20.328125 58.90625 
Q 16.5 51.421875 16.5 36.375 
Q 16.5 21.390625 20.328125 13.890625 
Q 24.171875 6.390625 31.78125 6.390625 
Q 39.453125 6.390625 43.28125 13.890625 
Q 47.125 21.390625 47.125 36.375 
Q 47.125 51.421875 43.28125 58.90625 
Q 39.453125 66.40625 31.78125 66.40625 
z
M 31.78125 74.21875 
Q 44.046875 74.21875 50.515625 64.515625 
Q 56.984375 54.828125 56.984375 36.375 
Q 56.984375 17.96875 50.515625 8.265625 
Q 44.046875 -1.421875 31.78125 -1.421875 
Q 19.53125 -1.421875 13.0625 8.265625 
Q 6.59375 17.96875 6.59375 36.375 
Q 6.59375 54.828125 13.0625 64.515625 
Q 19.53125 74.21875 31.78125 74.21875 
z
" id="DejaVuSans-48"/>
        <path d="M 10.6875 12.40625 
L 21 12.40625 
L 21 0 
L 10.6875 0 
z
" id="DejaVuSans-46"/>
        <path d="M 19.1875 8.296875 
L 53.609375 8.296875 
L 53.609375 0 
L 7.328125 0 
L 7.328125 8.296875 
Q 12.9375 14.109375 22.625 23.890625 
Q 32.328125 33.6875 34.8125 36.53125 
Q 39.546875 41.84375 41.421875 45.53125 
Q 43.3125 49.21875 43.3125 52.78125 
Q 43.3125 58.59375 39.234375 62.25 
Q 35.15625 65.921875 28.609375 65.921875 
Q 23.96875 65.921875 18.8125 64.3125 
Q 13.671875 62.703125 7.8125 59.421875 
L 7.8125 69.390625 
Q 13.765625 71.78125 18.9375 73 
Q 24.125 74.21875 28.421875 74.21875 
Q 39.75 74.21875 46.484375 68.546875 
Q 53.21875 62.890625 53.21875 53.421875 
Q 53.21875 48.921875 51.53125 44.890625 
Q 49.859375 40.875 45.40625 35.40625 
Q 44.1875 33.984375 37.640625 27.21875 
Q 31.109375 20.453125 19.1875 8.296875 
z
" id="DejaVuSans-50"/>
       </defs>
       <use xlink:href="#DejaVuSans-48"/>
       <use x="63.623047" xlink:href="#DejaVuSans-46"/>
       <use x="95.410156" xlink:href="#DejaVuSans-50"/>
      </g>
     </g>
    </g>
    <g id="xtick_2">
     <g id="line2d_2">
      <g>
       <use style="stroke:#000000;stroke-width:0.8;" x="182.171285" xlink:href="#m34a026d8e9" y="307.584"/>
      </g>
     </g>
     <g id="text_2">
      <!-- 0.4 -->
      <g transform="translate(174.219723 322.182437)scale(0.1 -0.1)">
       <defs>
        <path d="M 37.796875 64.3125 
L 12.890625 25.390625 
L 37.796875 25.390625 
z
M 35.203125 72.90625 
L 47.609375 72.90625 
L 47.609375 25.390625 
L 58.015625 25.390625 
L 58.015625 17.1875 
L 47.609375 17.1875 
L 47.609375 0 
L 37.796875 0 
L 37.796875 17.1875 
L 4.890625 17.1875 
L 4.890625 26.703125 
z
" id="DejaVuSans-52"/>
       </defs>
       <use xlink:href="#DejaVuSans-48"/>
       <use x="63.623047" xlink:href="#DejaVuSans-46"/>
       <use x="95.410156" xlink:href="#DejaVuSans-52"/>
      </g>
     </g>
    </g>
    <g id="xtick_3">
     <g id="line2d_3">
      <g>
       <use style="stroke:#000000;stroke-width:0.8;" x="254.396991" xlink:href="#m34a026d8e9" y="307.584"/>
      </g>
     </g>
     <g id="text_3">
      <!-- 0.6 -->
      <g transform="translate(246.445428 322.182437)scale(0.1 -0.1)">
       <defs>
        <path d="M 33.015625 40.375 
Q 26.375 40.375 22.484375 35.828125 
Q 18.609375 31.296875 18.609375 23.390625 
Q 18.609375 15.53125 22.484375 10.953125 
Q 26.375 6.390625 33.015625 6.390625 
Q 39.65625 6.390625 43.53125 10.953125 
Q 47.40625 15.53125 47.40625 23.390625 
Q 47.40625 31.296875 43.53125 35.828125 
Q 39.65625 40.375 33.015625 40.375 
z
M 52.59375 71.296875 
L 52.59375 62.3125 
Q 48.875 64.0625 45.09375 64.984375 
Q 41.3125 65.921875 37.59375 65.921875 
Q 27.828125 65.921875 22.671875 59.328125 
Q 17.53125 52.734375 16.796875 39.40625 
Q 19.671875 43.65625 24.015625 45.921875 
Q 28.375 48.1875 33.59375 48.1875 
Q 44.578125 48.1875 50.953125 41.515625 
Q 57.328125 34.859375 57.328125 23.390625 
Q 57.328125 12.15625 50.6875 5.359375 
Q 44.046875 -1.421875 33.015625 -1.421875 
Q 20.359375 -1.421875 13.671875 8.265625 
Q 6.984375 17.96875 6.984375 36.375 
Q 6.984375 53.65625 15.1875 63.9375 
Q 23.390625 74.21875 37.203125 74.21875 
Q 40.921875 74.21875 44.703125 73.484375 
Q 48.484375 72.75 52.59375 71.296875 
z
" id="DejaVuSans-54"/>
       </defs>
       <use xlink:href="#DejaVuSans-48"/>
       <use x="63.623047" xlink:href="#DejaVuSans-46"/>
       <use x="95.410156" xlink:href="#DejaVuSans-54"/>
      </g>
     </g>
    </g>
    <g id="xtick_4">
     <g id="line2d_4">
      <g>
       <use style="stroke:#000000;stroke-width:0.8;" x="326.622696" xlink:href="#m34a026d8e9" y="307.584"/>
      </g>
     </g>
     <g id="text_4">
      <!-- 0.8 -->
      <g transform="translate(318.671133 322.182437)scale(0.1 -0.1)">
       <defs>
        <path d="M 31.78125 34.625 
Q 24.75 34.625 20.71875 30.859375 
Q 16.703125 27.09375 16.703125 20.515625 
Q 16.703125 13.921875 20.71875 10.15625 
Q 24.75 6.390625 31.78125 6.390625 
Q 38.8125 6.390625 42.859375 10.171875 
Q 46.921875 13.96875 46.921875 20.515625 
Q 46.921875 27.09375 42.890625 30.859375 
Q 38.875 34.625 31.78125 34.625 
z
M 21.921875 38.8125 
Q 15.578125 40.375 12.03125 44.71875 
Q 8.5 49.078125 8.5 55.328125 
Q 8.5 64.0625 14.71875 69.140625 
Q 20.953125 74.21875 31.78125 74.21875 
Q 42.671875 74.21875 48.875 69.140625 
Q 55.078125 64.0625 55.078125 55.328125 
Q 55.078125 49.078125 51.53125 44.71875 
Q 48 40.375 41.703125 38.8125 
Q 48.828125 37.15625 52.796875 32.3125 
Q 56.78125 27.484375 56.78125 20.515625 
Q 56.78125 9.90625 50.3125 4.234375 
Q 43.84375 -1.421875 31.78125 -1.421875 
Q 19.734375 -1.421875 13.25 4.234375 
Q 6.78125 9.90625 6.78125 20.515625 
Q 6.78125 27.484375 10.78125 32.3125 
Q 14.796875 37.15625 21.921875 38.8125 
z
M 18.3125 54.390625 
Q 18.3125 48.734375 21.84375 45.5625 
Q 25.390625 42.390625 31.78125 42.390625 
Q 38.140625 42.390625 41.71875 45.5625 
Q 45.3125 48.734375 45.3125 54.390625 
Q 45.3125 60.0625 41.71875 63.234375 
Q 38.140625 66.40625 31.78125 66.40625 
Q 25.390625 66.40625 21.84375 63.234375 
Q 18.3125 60.0625 18.3125 54.390625 
z
" id="DejaVuSans-56"/>
       </defs>
       <use xlink:href="#DejaVuSans-48"/>
       <use x="63.623047" xlink:href="#DejaVuSans-46"/>
       <use x="95.410156" xlink:href="#DejaVuSans-56"/>
      </g>
     </g>
    </g>
    <g id="xtick_5">
     <g id="line2d_5">
      <g>
       <use style="stroke:#000000;stroke-width:0.8;" x="398.848401" xlink:href="#m34a026d8e9" y="307.584"/>
      </g>
     </g>
     <g id="text_5">
      <!-- 1.0 -->
      <g transform="translate(390.896839 322.182437)scale(0.1 -0.1)">
       <defs>
        <path d="M 12.40625 8.296875 
L 28.515625 8.296875 
L 28.515625 63.921875 
L 10.984375 60.40625 
L 10.984375 69.390625 
L 28.421875 72.90625 
L 38.28125 72.90625 
L 38.28125 8.296875 
L 54.390625 8.296875 
L 54.390625 0 
L 12.40625 0 
z
" id="DejaVuSans-49"/>
       </defs>
       <use xlink:href="#DejaVuSans-49"/>
       <use x="63.623047" xlink:href="#DejaVuSans-46"/>
       <use x="95.410156" xlink:href="#DejaVuSans-48"/>
      </g>
     </g>
    </g>
    <g id="text_6">
     <!-- thresholds -->
     <g transform="translate(210.010781 335.860562)scale(0.1 -0.1)">
      <defs>
       <path d="M 18.3125 70.21875 
L 18.3125 54.6875 
L 36.8125 54.6875 
L 36.8125 47.703125 
L 18.3125 47.703125 
L 18.3125 18.015625 
Q 18.3125 11.328125 20.140625 9.421875 
Q 21.96875 7.515625 27.59375 7.515625 
L 36.8125 7.515625 
L 36.8125 0 
L 27.59375 0 
Q 17.1875 0 13.234375 3.875 
Q 9.28125 7.765625 9.28125 18.015625 
L 9.28125 47.703125 
L 2.6875 47.703125 
L 2.6875 54.6875 
L 9.28125 54.6875 
L 9.28125 70.21875 
z
" id="DejaVuSans-116"/>
       <path d="M 54.890625 33.015625 
L 54.890625 0 
L 45.90625 0 
L 45.90625 32.71875 
Q 45.90625 40.484375 42.875 44.328125 
Q 39.84375 48.1875 33.796875 48.1875 
Q 26.515625 48.1875 22.3125 43.546875 
Q 18.109375 38.921875 18.109375 30.90625 
L 18.109375 0 
L 9.078125 0 
L 9.078125 75.984375 
L 18.109375 75.984375 
L 18.109375 46.1875 
Q 21.34375 51.125 25.703125 53.5625 
Q 30.078125 56 35.796875 56 
Q 45.21875 56 50.046875 50.171875 
Q 54.890625 44.34375 54.890625 33.015625 
z
" id="DejaVuSans-104"/>
       <path d="M 41.109375 46.296875 
Q 39.59375 47.171875 37.8125 47.578125 
Q 36.03125 48 33.890625 48 
Q 26.265625 48 22.1875 43.046875 
Q 18.109375 38.09375 18.109375 28.8125 
L 18.109375 0 
L 9.078125 0 
L 9.078125 54.6875 
L 18.109375 54.6875 
L 18.109375 46.1875 
Q 20.953125 51.171875 25.484375 53.578125 
Q 30.03125 56 36.53125 56 
Q 37.453125 56 38.578125 55.875 
Q 39.703125 55.765625 41.0625 55.515625 
z
" id="DejaVuSans-114"/>
       <path d="M 56.203125 29.59375 
L 56.203125 25.203125 
L 14.890625 25.203125 
Q 15.484375 15.921875 20.484375 11.0625 
Q 25.484375 6.203125 34.421875 6.203125 
Q 39.59375 6.203125 44.453125 7.46875 
Q 49.3125 8.734375 54.109375 11.28125 
L 54.109375 2.78125 
Q 49.265625 0.734375 44.1875 -0.34375 
Q 39.109375 -1.421875 33.890625 -1.421875 
Q 20.796875 -1.421875 13.15625 6.1875 
Q 5.515625 13.8125 5.515625 26.8125 
Q 5.515625 40.234375 12.765625 48.109375 
Q 20.015625 56 32.328125 56 
Q 43.359375 56 49.78125 48.890625 
Q 56.203125 41.796875 56.203125 29.59375 
z
M 47.21875 32.234375 
Q 47.125 39.59375 43.09375 43.984375 
Q 39.0625 48.390625 32.421875 48.390625 
Q 24.90625 48.390625 20.390625 44.140625 
Q 15.875 39.890625 15.1875 32.171875 
z
" id="DejaVuSans-101"/>
       <path d="M 44.28125 53.078125 
L 44.28125 44.578125 
Q 40.484375 46.53125 36.375 47.5 
Q 32.28125 48.484375 27.875 48.484375 
Q 21.1875 48.484375 17.84375 46.4375 
Q 14.5 44.390625 14.5 40.28125 
Q 14.5 37.15625 16.890625 35.375 
Q 19.28125 33.59375 26.515625 31.984375 
L 29.59375 31.296875 
Q 39.15625 29.25 43.1875 25.515625 
Q 47.21875 21.78125 47.21875 15.09375 
Q 47.21875 7.46875 41.1875 3.015625 
Q 35.15625 -1.421875 24.609375 -1.421875 
Q 20.21875 -1.421875 15.453125 -0.5625 
Q 10.6875 0.296875 5.421875 2 
L 5.421875 11.28125 
Q 10.40625 8.6875 15.234375 7.390625 
Q 20.0625 6.109375 24.8125 6.109375 
Q 31.15625 6.109375 34.5625 8.28125 
Q 37.984375 10.453125 37.984375 14.40625 
Q 37.984375 18.0625 35.515625 20.015625 
Q 33.0625 21.96875 24.703125 23.78125 
L 21.578125 24.515625 
Q 13.234375 26.265625 9.515625 29.90625 
Q 5.8125 33.546875 5.8125 39.890625 
Q 5.8125 47.609375 11.28125 51.796875 
Q 16.75 56 26.8125 56 
Q 31.78125 56 36.171875 55.265625 
Q 40.578125 54.546875 44.28125 53.078125 
z
" id="DejaVuSans-115"/>
       <path d="M 30.609375 48.390625 
Q 23.390625 48.390625 19.1875 42.75 
Q 14.984375 37.109375 14.984375 27.296875 
Q 14.984375 17.484375 19.15625 11.84375 
Q 23.34375 6.203125 30.609375 6.203125 
Q 37.796875 6.203125 41.984375 11.859375 
Q 46.1875 17.53125 46.1875 27.296875 
Q 46.1875 37.015625 41.984375 42.703125 
Q 37.796875 48.390625 30.609375 48.390625 
z
M 30.609375 56 
Q 42.328125 56 49.015625 48.375 
Q 55.71875 40.765625 55.71875 27.296875 
Q 55.71875 13.875 49.015625 6.21875 
Q 42.328125 -1.421875 30.609375 -1.421875 
Q 18.84375 -1.421875 12.171875 6.21875 
Q 5.515625 13.875 5.515625 27.296875 
Q 5.515625 40.765625 12.171875 48.375 
Q 18.84375 56 30.609375 56 
z
" id="DejaVuSans-111"/>
       <path d="M 9.421875 75.984375 
L 18.40625 75.984375 
L 18.40625 0 
L 9.421875 0 
z
" id="DejaVuSans-108"/>
       <path d="M 45.40625 46.390625 
L 45.40625 75.984375 
L 54.390625 75.984375 
L 54.390625 0 
L 45.40625 0 
L 45.40625 8.203125 
Q 42.578125 3.328125 38.25 0.953125 
Q 33.9375 -1.421875 27.875 -1.421875 
Q 17.96875 -1.421875 11.734375 6.484375 
Q 5.515625 14.40625 5.515625 27.296875 
Q 5.515625 40.1875 11.734375 48.09375 
Q 17.96875 56 27.875 56 
Q 33.9375 56 38.25 53.625 
Q 42.578125 51.265625 45.40625 46.390625 
z
M 14.796875 27.296875 
Q 14.796875 17.390625 18.875 11.75 
Q 22.953125 6.109375 30.078125 6.109375 
Q 37.203125 6.109375 41.296875 11.75 
Q 45.40625 17.390625 45.40625 27.296875 
Q 45.40625 37.203125 41.296875 42.84375 
Q 37.203125 48.484375 30.078125 48.484375 
Q 22.953125 48.484375 18.875 42.84375 
Q 14.796875 37.203125 14.796875 27.296875 
z
" id="DejaVuSans-100"/>
      </defs>
      <use xlink:href="#DejaVuSans-116"/>
      <use x="39.208984" xlink:href="#DejaVuSans-104"/>
      <use x="102.587891" xlink:href="#DejaVuSans-114"/>
      <use x="141.451172" xlink:href="#DejaVuSans-101"/>
      <use x="202.974609" xlink:href="#DejaVuSans-115"/>
      <use x="255.074219" xlink:href="#DejaVuSans-104"/>
      <use x="318.453125" xlink:href="#DejaVuSans-111"/>
      <use x="379.634766" xlink:href="#DejaVuSans-108"/>
      <use x="407.417969" xlink:href="#DejaVuSans-100"/>
      <use x="470.894531" xlink:href="#DejaVuSans-115"/>
     </g>
    </g>
   </g>
   <g id="matplotlib.axis_2">
    <g id="ytick_1">
     <g id="line2d_6">
      <defs>
       <path d="M 0 0 
L -3.5 0 
" id="ma2a132b1ea" style="stroke:#000000;stroke-width:0.8;"/>
      </defs>
      <g>
       <use style="stroke:#000000;stroke-width:0.8;" x="57.6" xlink:href="#ma2a132b1ea" y="307.451935"/>
      </g>
     </g>
     <g id="text_7">
      <!-- 0.0 -->
      <g transform="translate(34.696875 311.251154)scale(0.1 -0.1)">
       <use xlink:href="#DejaVuSans-48"/>
       <use x="63.623047" xlink:href="#DejaVuSans-46"/>
       <use x="95.410156" xlink:href="#DejaVuSans-48"/>
      </g>
     </g>
    </g>
    <g id="ytick_2">
     <g id="line2d_7">
      <g>
       <use style="stroke:#000000;stroke-width:0.8;" x="57.6" xlink:href="#ma2a132b1ea" y="251.575426"/>
      </g>
     </g>
     <g id="text_8">
      <!-- 0.2 -->
      <g transform="translate(34.696875 255.374644)scale(0.1 -0.1)">
       <use xlink:href="#DejaVuSans-48"/>
       <use x="63.623047" xlink:href="#DejaVuSans-46"/>
       <use x="95.410156" xlink:href="#DejaVuSans-50"/>
      </g>
     </g>
    </g>
    <g id="ytick_3">
     <g id="line2d_8">
      <g>
       <use style="stroke:#000000;stroke-width:0.8;" x="57.6" xlink:href="#ma2a132b1ea" y="195.698916"/>
      </g>
     </g>
     <g id="text_9">
      <!-- 0.4 -->
      <g transform="translate(34.696875 199.498135)scale(0.1 -0.1)">
       <use xlink:href="#DejaVuSans-48"/>
       <use x="63.623047" xlink:href="#DejaVuSans-46"/>
       <use x="95.410156" xlink:href="#DejaVuSans-52"/>
      </g>
     </g>
    </g>
    <g id="ytick_4">
     <g id="line2d_9">
      <g>
       <use style="stroke:#000000;stroke-width:0.8;" x="57.6" xlink:href="#ma2a132b1ea" y="139.822407"/>
      </g>
     </g>
     <g id="text_10">
      <!-- 0.6 -->
      <g transform="translate(34.696875 143.621625)scale(0.1 -0.1)">
       <use xlink:href="#DejaVuSans-48"/>
       <use x="63.623047" xlink:href="#DejaVuSans-46"/>
       <use x="95.410156" xlink:href="#DejaVuSans-54"/>
      </g>
     </g>
    </g>
    <g id="ytick_5">
     <g id="line2d_10">
      <g>
       <use style="stroke:#000000;stroke-width:0.8;" x="57.6" xlink:href="#ma2a132b1ea" y="83.945897"/>
      </g>
     </g>
     <g id="text_11">
      <!-- 0.8 -->
      <g transform="translate(34.696875 87.745116)scale(0.1 -0.1)">
       <use xlink:href="#DejaVuSans-48"/>
       <use x="63.623047" xlink:href="#DejaVuSans-46"/>
       <use x="95.410156" xlink:href="#DejaVuSans-56"/>
      </g>
     </g>
    </g>
    <g id="text_12">
     <!-- score -->
     <g transform="translate(28.617188 187.960813)rotate(-90)scale(0.1 -0.1)">
      <defs>
       <path d="M 48.78125 52.59375 
L 48.78125 44.1875 
Q 44.96875 46.296875 41.140625 47.34375 
Q 37.3125 48.390625 33.40625 48.390625 
Q 24.65625 48.390625 19.8125 42.84375 
Q 14.984375 37.3125 14.984375 27.296875 
Q 14.984375 17.28125 19.8125 11.734375 
Q 24.65625 6.203125 33.40625 6.203125 
Q 37.3125 6.203125 41.140625 7.25 
Q 44.96875 8.296875 48.78125 10.40625 
L 48.78125 2.09375 
Q 45.015625 0.34375 40.984375 -0.53125 
Q 36.96875 -1.421875 32.421875 -1.421875 
Q 20.0625 -1.421875 12.78125 6.34375 
Q 5.515625 14.109375 5.515625 27.296875 
Q 5.515625 40.671875 12.859375 48.328125 
Q 20.21875 56 33.015625 56 
Q 37.15625 56 41.109375 55.140625 
Q 45.0625 54.296875 48.78125 52.59375 
z
" id="DejaVuSans-99"/>
      </defs>
      <use xlink:href="#DejaVuSans-115"/>
      <use x="52.099609" xlink:href="#DejaVuSans-99"/>
      <use x="107.080078" xlink:href="#DejaVuSans-111"/>
      <use x="168.261719" xlink:href="#DejaVuSans-114"/>
      <use x="207.125" xlink:href="#DejaVuSans-101"/>
     </g>
    </g>
   </g>
   <g id="line2d_11">
    <path clip-path="url(#p928d91fe17)" d="M 73.832727 270.293933 
L 74.916113 270.165243 
L 75.63837 269.898439 
L 77.082884 269.772441 
L 78.527398 269.447587 
L 79.249655 269.447587 
L 80.694169 269.08822 
L 82.86094 268.708254 
L 83.944326 268.415362 
L 85.027712 268.194266 
L 85.38884 268.032195 
L 85.749969 268.024018 
L 86.472226 267.755998 
L 87.194483 267.629758 
L 87.555611 267.387414 
L 89.722382 266.996112 
L 91.889154 266.380695 
L 92.972539 266.341668 
L 94.055925 266.01729 
L 94.778182 265.935179 
L 95.500439 265.827361 
L 98.028339 265.031673 
L 98.750596 264.839527 
L 100.19511 264.371121 
L 101.278495 264.117767 
L 102.000752 263.860245 
L 102.723009 263.698892 
L 103.445266 263.561037 
L 104.889781 263.349323 
L 105.612038 263.047687 
L 106.695423 262.790036 
L 107.41768 262.587438 
L 107.778809 262.449105 
L 108.501066 262.327619 
L 108.862194 262.260819 
L 109.223323 262.024302 
L 109.584451 261.983039 
L 109.94558 261.708854 
L 110.306708 261.614156 
L 110.667837 261.365603 
L 111.751223 261.154085 
L 112.112351 260.9301 
L 113.917994 260.48248 
L 114.640251 260.111306 
L 115.001379 260.106621 
L 115.362508 259.844756 
L 117.16815 259.291055 
L 117.529279 259.070304 
L 118.251536 259.012537 
L 119.334922 258.552633 
L 120.779436 258.38935 
L 122.585078 257.942151 
L 122.946207 258.167315 
L 123.307335 258.116897 
L 123.668464 258.265275 
L 124.029592 257.921283 
L 124.390721 257.995924 
L 125.112978 257.386144 
L 125.474107 257.102946 
L 126.196364 256.894268 
L 129.085392 256.055069 
L 129.44652 256.289665 
L 132.335549 255.234745 
L 133.057806 255.317476 
L 133.418934 255.208081 
L 133.780063 255.379093 
L 134.863448 254.925241 
L 135.224577 254.802276 
L 135.585705 254.843534 
L 135.946834 254.683713 
L 136.669091 254.629545 
L 137.391348 254.455998 
L 138.113605 253.952099 
L 138.474734 253.842237 
L 138.835862 253.964128 
L 140.280376 253.498687 
L 140.641505 253.420771 
L 141.002633 253.638818 
L 142.447147 253.174608 
L 142.808276 253.285568 
L 143.169404 253.260235 
L 143.530533 252.914868 
L 143.891661 252.913586 
L 144.25279 252.790871 
L 144.975047 253.007046 
L 145.336176 254.037881 
L 145.697304 253.873459 
L 147.141818 254.150927 
L 147.502947 254.006205 
L 148.225204 254.075177 
L 148.586332 253.970513 
L 148.947461 254.134323 
L 149.669718 253.676377 
L 150.030846 253.948865 
L 151.475361 253.217316 
L 151.836489 253.655327 
L 152.919875 253.109927 
L 153.642132 253.10043 
L 154.00326 253.203303 
L 154.364389 253.056579 
L 154.725517 253.157678 
L 155.086646 253.386189 
L 155.447774 253.439733 
L 156.170031 253.089412 
L 156.53116 253.118149 
L 156.892288 253.33053 
L 157.253417 253.13357 
L 157.614545 253.562512 
L 157.975674 253.375179 
L 158.697931 252.272232 
L 159.05906 252.411753 
L 159.781317 252.396078 
L 160.142445 252.732962 
L 160.503574 252.745344 
L 160.864702 252.61428 
L 161.225831 252.624825 
L 161.586959 253.070431 
L 161.948088 252.850558 
L 162.309216 252.811324 
L 162.670345 252.979123 
L 163.75373 252.936382 
L 164.114859 253.186145 
L 164.837116 252.650503 
L 165.198245 252.757285 
L 165.559373 252.7474 
L 165.920502 252.969462 
L 166.28163 252.846922 
L 166.642759 253.205897 
L 167.003887 252.872722 
L 167.365016 252.907072 
L 168.087273 253.276352 
L 168.448401 252.997098 
L 170.254044 252.44798 
L 170.615172 252.810292 
L 170.976301 252.854563 
L 172.420815 252.556863 
L 172.781944 252.874528 
L 173.143072 253.415066 
L 173.865329 252.741022 
L 174.226458 252.707083 
L 174.587586 253.404018 
L 174.948715 253.390355 
L 175.309843 253.528935 
L 175.670972 253.376116 
L 176.0321 253.991746 
L 177.476614 254.088855 
L 177.837743 253.579137 
L 178.56 253.51266 
L 178.921129 253.273723 
L 179.282257 253.196196 
L 179.643386 255.066303 
L 180.004514 255.185772 
L 180.365643 255.145949 
L 180.726771 254.989435 
L 181.449028 255.210402 
L 181.810157 255.801944 
L 182.532414 255.741257 
L 183.254671 256.081775 
L 183.615799 255.995774 
L 183.976928 256.181454 
L 184.338056 257.541773 
L 184.699185 257.326937 
L 185.060313 257.58309 
L 185.421442 257.608297 
L 185.782571 257.970586 
L 186.143699 257.707536 
L 186.504828 258.641184 
L 190.477241 258.214281 
L 190.83837 258.777732 
L 191.199498 259.034745 
L 191.560627 259.017163 
L 191.921755 259.133243 
L 192.282884 259.130418 
L 193.005141 259.546616 
L 193.36627 259.44134 
L 193.727398 260.139228 
L 194.088527 260.096816 
L 194.449655 261.075017 
L 194.810784 261.619686 
L 195.171912 261.606836 
L 195.533041 261.871686 
L 196.616426 261.697567 
L 196.977555 261.697567 
L 197.338683 262.831882 
L 198.06094 261.964358 
L 198.422069 262.021374 
L 198.783197 262.412259 
L 199.144326 262.215263 
L 200.58884 262.302535 
L 200.949969 262.058302 
L 201.672226 261.887537 
L 202.033354 262.227749 
L 202.394483 262.21504 
L 202.755611 262.71053 
L 204.561254 263.169517 
L 205.644639 263.115937 
L 206.005768 263.115937 
L 206.728025 263.572911 
L 207.089154 263.307496 
L 207.450282 263.307496 
L 208.172539 262.92346 
L 209.255925 263.003035 
L 209.617053 262.71778 
L 210.700439 262.373496 
L 211.061567 263.314204 
L 211.422696 263.402181 
L 211.783824 263.307284 
L 212.144953 263.563309 
L 212.506082 263.296399 
L 212.86721 263.992922 
L 213.228339 263.909393 
L 213.589467 264.057175 
L 213.950596 264.05195 
L 214.672853 264.310022 
L 215.033981 264.210747 
L 215.39511 264.407178 
L 215.756238 264.285344 
L 216.478495 264.251735 
L 216.839624 264.426746 
L 217.200752 264.203837 
L 217.561881 264.341734 
L 219.367524 264.34803 
L 219.728652 264.964437 
L 220.089781 264.698033 
L 220.450909 265.009414 
L 221.173166 264.778103 
L 221.534295 265.569617 
L 222.256552 265.628529 
L 223.339937 265.668281 
L 223.701066 265.734017 
L 224.062194 265.526289 
L 224.784451 265.654772 
L 225.14558 266.470292 
L 226.228966 266.384292 
L 226.590094 266.318062 
L 227.67348 266.409852 
L 228.034608 266.409852 
L 228.395737 266.822555 
L 229.117994 266.822555 
L 229.479122 267.675145 
L 229.840251 267.45273 
L 230.201379 267.480408 
L 230.562508 267.303112 
L 232.36815 267.296546 
L 232.729279 268.671563 
L 233.090408 268.511424 
L 234.89605 268.586551 
L 235.257179 268.358841 
L 235.618307 268.393438 
L 235.979436 269.65979 
L 236.340564 269.638043 
L 236.701693 269.736894 
L 237.062821 269.438858 
L 237.42395 270.04305 
L 238.868464 269.98967 
L 239.229592 269.840405 
L 241.396364 269.779612 
L 241.757492 269.657531 
L 242.118621 269.720301 
L 242.840878 269.322285 
L 243.202006 270.238139 
L 244.285392 270.122483 
L 244.64652 269.97915 
L 245.368777 269.934455 
L 245.729906 270.757389 
L 246.091034 270.757389 
L 246.452163 271.148839 
L 247.896677 271.050977 
L 248.257806 270.714883 
L 248.618934 271.841961 
L 250.424577 271.737673 
L 250.785705 271.65365 
L 251.146834 271.940318 
L 251.869091 271.818237 
L 252.230219 272.184974 
L 253.674734 272.327178 
L 255.119248 272.423558 
L 255.841505 272.418051 
L 256.202633 272.6375 
L 256.92489 272.525798 
L 257.286019 272.614764 
L 259.813918 272.42031 
L 260.175047 272.986232 
L 260.536176 272.941749 
L 260.897304 273.73058 
L 261.619561 273.739759 
L 262.341818 273.688356 
L 262.702947 274.746556 
L 263.786332 274.711958 
L 264.508589 274.882476 
L 265.230846 274.577309 
L 266.314232 274.646999 
L 266.675361 274.26148 
L 268.119875 274.226671 
L 268.842132 274.116946 
L 270.286646 274.020072 
L 271.008903 273.929976 
L 271.73116 273.929976 
L 272.092288 274.11391 
L 273.175674 274.070415 
L 273.536803 274.734694 
L 274.620188 274.751004 
L 274.981317 274.614096 
L 275.342445 274.614096 
L 275.703574 274.956191 
L 276.064702 274.960251 
L 276.425831 275.0937 
L 276.786959 275.054159 
L 277.148088 275.232091 
L 277.509216 275.234562 
L 278.231473 275.510357 
L 278.592602 275.994726 
L 279.314859 276.009554 
L 282.203887 276.164256 
L 284.370658 276.104945 
L 284.731787 276.610568 
L 285.092915 276.511717 
L 285.454044 276.855224 
L 285.815172 276.964949 
L 286.898558 276.9151 
L 287.981944 276.9151 
L 288.343072 277.683172 
L 289.426458 277.688114 
L 290.870972 277.529953 
L 291.2321 277.948587 
L 292.315486 277.943644 
L 293.037743 278.022725 
L 293.76 278.091426 
L 294.482257 278.180392 
L 296.649028 278.118116 
L 297.010157 280.662541 
L 297.371285 280.650679 
L 297.732414 282.607928 
L 298.454671 282.988504 
L 298.815799 282.673805 
L 299.538056 282.654035 
L 299.899185 283.039554 
L 300.621442 283.039554 
L 300.982571 283.150761 
L 302.788213 283.06229 
L 303.51047 283.133957 
L 306.03837 283.138758 
L 306.760627 283.017665 
L 307.121755 283.136287 
L 307.844013 283.047321 
L 308.205141 283.891014 
L 309.649655 283.827255 
L 310.010784 284.10898 
L 310.371912 284.241723 
L 310.733041 284.241723 
L 311.094169 284.854599 
L 316.511097 284.772059 
L 316.872226 285.019186 
L 318.31674 284.945048 
L 318.677868 286.842987 
L 321.205768 286.745619 
L 321.566897 287.237402 
L 322.289154 287.148436 
L 323.733668 287.23246 
L 324.094796 287.760324 
L 324.455925 287.760324 
L 324.817053 287.958026 
L 328.06721 288.002509 
L 328.428339 288.259522 
L 328.789467 288.086532 
L 331.678495 288.076153 
L 332.039624 288.355407 
L 333.123009 288.355407 
L 333.484138 288.711271 
L 333.845266 288.703362 
L 334.206395 289.237158 
L 334.928652 289.237158 
L 335.650909 289.123479 
L 336.373166 289.167962 
L 336.734295 289.049341 
L 337.095423 289.049341 
L 337.81768 288.935662 
L 339.623323 288.920835 
L 341.067837 289.153134 
L 343.956865 289.123479 
L 344.317994 290.439186 
L 350.09605 290.48268 
L 350.457179 290.302277 
L 351.179436 290.707566 
L 351.540564 291.211706 
L 352.985078 291.204292 
L 353.707335 291.308086 
L 354.790721 291.308086 
L 355.512978 291.512213 
L 358.040878 291.572512 
L 358.402006 291.394581 
L 359.485392 291.388155 
L 359.84652 291.575478 
L 361.291034 291.575478 
L 361.652163 291.783065 
L 367.069091 291.815686 
L 367.430219 291.924422 
L 367.791348 291.820628 
L 368.152476 292.888219 
L 371.041505 292.977185 
L 371.763762 293.076036 
L 374.65279 293.157588 
L 375.013918 294.838055 
L 376.819561 294.729319 
L 377.902947 294.763917 
L 384.042132 294.739204 
L 384.40326 295.095067 
L 386.208903 295.095067 
L 386.570031 295.39162 
L 386.93116 295.421276 
L 387.292288 295.293758 
L 392.348088 295.19639 
L 393.070345 295.122251 
L 395.237116 295.122251 
L 395.598245 295.478115 
L 398.487273 295.488 
L 398.487273 295.488 
" style="fill:none;stroke:#ff0000;stroke-linecap:square;stroke-width:1.5;"/>
   </g>
   <g id="line2d_12">
    <path clip-path="url(#p928d91fe17)" d="M 73.832727 53.568 
L 78.16627 53.568 
L 78.527398 53.731104 
L 79.610784 53.731104 
L 79.971912 53.968347 
L 87.194483 53.968347 
L 87.555611 54.472487 
L 91.166897 54.472487 
L 91.528025 54.699844 
L 91.889154 54.699844 
L 92.611411 55.530192 
L 92.972539 55.960194 
L 93.333668 56.167781 
L 93.694796 56.167781 
L 94.055925 56.780657 
L 94.417053 56.780657 
L 95.500439 57.536867 
L 96.944953 57.536867 
L 97.306082 57.744454 
L 98.028339 57.744454 
L 98.389467 57.981697 
L 99.472853 57.981697 
L 99.833981 58.218939 
L 100.917367 58.218939 
L 101.278495 58.456181 
L 102.000752 58.456181 
L 102.361881 58.673654 
L 102.723009 58.673654 
L 103.806395 60.388718 
L 104.167524 60.388718 
L 104.528652 60.700099 
L 105.250909 60.700099 
L 105.973166 61.144928 
L 106.334295 61.144928 
L 106.695423 61.678724 
L 107.41768 62.143323 
L 107.778809 62.143323 
L 108.139937 62.37068 
L 108.501066 62.37068 
L 108.862194 63.171373 
L 109.94558 63.171373 
L 110.306708 63.749652 
L 110.667837 63.749652 
L 111.028966 64.253792 
L 111.390094 64.500919 
L 111.751223 65.005059 
L 112.112351 65.005059 
L 112.47348 65.909546 
L 112.834608 66.156673 
L 113.556865 66.156673 
L 113.917994 66.36426 
L 114.279122 66.36426 
L 115.001379 67.54553 
L 116.445893 68.445074 
L 116.807022 68.445074 
L 117.16815 68.672431 
L 117.529279 69.156801 
L 117.890408 69.156801 
L 118.251536 70.04646 
L 118.973793 70.04646 
L 119.69605 71.395776 
L 120.779436 72.631413 
L 121.140564 72.631413 
L 121.501693 74.089465 
L 121.862821 74.504639 
L 122.22395 74.731997 
L 122.585078 74.731997 
L 122.946207 75.28062 
L 123.307335 75.53269 
L 123.668464 76.041772 
L 124.029592 76.041772 
L 124.390721 76.886948 
L 124.75185 76.886948 
L 125.112978 77.10442 
L 125.474107 77.10442 
L 125.835235 77.267524 
L 126.918621 78.409253 
L 127.279749 79.37305 
L 127.640878 79.87719 
L 128.002006 79.87719 
L 128.724263 80.915126 
L 129.085392 81.122713 
L 129.44652 82.472029 
L 130.168777 82.472029 
L 130.529906 82.699386 
L 131.252163 82.699386 
L 131.613292 82.966284 
L 132.696677 84.196979 
L 133.057806 85.190431 
L 133.418934 85.190431 
L 134.50232 88.175731 
L 134.863448 88.175731 
L 135.224577 88.383318 
L 135.585705 89.10493 
L 135.946834 89.357 
L 136.307962 89.772174 
L 137.030219 90.152751 
L 137.391348 90.701374 
L 137.752476 90.908961 
L 138.113605 91.759079 
L 138.474734 92.025977 
L 138.835862 93.182533 
L 139.196991 93.597708 
L 139.558119 93.597708 
L 140.280376 95.090358 
L 140.641505 95.253462 
L 141.002633 96.395191 
L 141.363762 96.395191 
L 141.72489 97.082205 
L 142.447147 97.082205 
L 142.808276 98.12014 
L 143.169404 98.12014 
L 143.530533 98.342555 
L 143.891661 98.802212 
L 144.25279 99.617733 
L 144.613918 99.86486 
L 145.336176 101.975329 
L 145.697304 101.975329 
L 146.058433 102.212571 
L 146.419561 102.212571 
L 146.78069 103.631083 
L 147.141818 104.327982 
L 147.502947 104.327982 
L 147.864075 104.876605 
L 148.225204 105.914541 
L 148.586332 106.35937 
L 148.947461 107.861905 
L 149.308589 107.861905 
L 149.669718 108.173286 
L 150.391975 109.606625 
L 150.753103 109.606625 
L 151.114232 110.362835 
L 151.475361 110.362835 
L 151.836489 111.558932 
L 152.919875 112.255832 
L 153.281003 113.096065 
L 153.642132 113.259169 
L 154.00326 114.222966 
L 154.364389 114.222966 
L 154.725517 115.260902 
L 155.086646 115.557455 
L 155.447774 116.09125 
L 155.808903 116.298837 
L 156.170031 117.593785 
L 156.53116 117.831027 
L 156.892288 118.458731 
L 157.253417 118.458731 
L 157.614545 119.808047 
L 158.336803 120.282532 
L 159.05906 121.30564 
L 159.420188 121.750469 
L 159.781317 121.928401 
L 160.142445 123.084957 
L 160.503574 123.767029 
L 160.864702 123.959789 
L 161.225831 124.730826 
L 161.586959 126.539799 
L 163.031473 128.5959 
L 163.392602 128.5959 
L 164.475987 130.419701 
L 164.837116 130.656943 
L 165.198245 131.36867 
L 165.559373 131.36867 
L 165.920502 132.525227 
L 166.28163 132.717986 
L 166.642759 134.363855 
L 167.003887 134.363855 
L 167.365016 134.571442 
L 167.726144 135.698343 
L 168.087273 136.217311 
L 168.80953 136.676968 
L 169.170658 137.092142 
L 169.531787 137.092142 
L 169.892915 137.477661 
L 170.254044 137.477661 
L 170.615172 138.708356 
L 171.337429 139.850085 
L 172.059687 139.850085 
L 172.781944 140.349282 
L 173.143072 140.784227 
L 173.865329 142.939178 
L 174.226458 143.354352 
L 174.587586 144.021597 
L 174.948715 144.021597 
L 175.309843 145.104015 
L 175.670972 145.104015 
L 176.0321 146.112295 
L 176.393229 146.571952 
L 176.754357 146.779539 
L 177.115486 147.506094 
L 177.476614 147.506094 
L 177.837743 147.713681 
L 178.56 147.713681 
L 178.921129 147.950923 
L 179.282257 147.950923 
L 179.643386 150.026794 
L 180.365643 150.486451 
L 180.726771 151.287144 
L 181.0879 152.369563 
L 181.449028 152.666115 
L 181.810157 153.422326 
L 182.171285 153.867155 
L 182.532414 153.867155 
L 182.893542 154.445433 
L 183.254671 155.690956 
L 183.615799 155.690956 
L 183.976928 156.521304 
L 184.338056 157.954643 
L 184.699185 158.384645 
L 185.060313 159.36327 
L 185.421442 159.570857 
L 185.782571 160.905345 
L 186.143699 160.905345 
L 186.504828 163.248114 
L 186.865956 163.248114 
L 187.227085 163.411218 
L 187.949342 163.411218 
L 188.671599 163.915358 
L 189.032727 164.953293 
L 189.393856 165.457433 
L 189.754984 165.457433 
L 190.116113 165.828125 
L 190.477241 166.747439 
L 190.83837 167.241694 
L 191.199498 168.002846 
L 191.560627 168.210433 
L 191.921755 169.218713 
L 192.282884 169.693198 
L 192.644013 171.294584 
L 193.005141 171.739414 
L 193.36627 171.739414 
L 193.727398 173.385283 
L 194.088527 173.578042 
L 194.449655 175.846672 
L 194.810784 176.291502 
L 195.171912 176.291502 
L 195.533041 177.151505 
L 195.894169 177.37392 
L 196.255298 177.37392 
L 196.616426 177.967026 
L 196.977555 177.967026 
L 197.338683 179.257031 
L 197.699812 179.257031 
L 198.06094 179.612895 
L 198.783197 181.955663 
L 199.144326 181.955663 
L 199.866583 182.35601 
L 200.227712 182.726701 
L 201.311097 182.726701 
L 201.672226 183.201186 
L 202.033354 184.298432 
L 202.394483 184.298432 
L 202.755611 185.944301 
L 203.11674 186.744994 
L 204.200125 187.90155 
L 204.922382 188.301897 
L 205.283511 188.301897 
L 205.644639 188.895003 
L 206.005768 188.895003 
L 206.366897 189.369487 
L 206.728025 190.318457 
L 207.811411 190.318457 
L 208.533668 190.733631 
L 208.894796 190.733631 
L 209.255925 191.030184 
L 210.700439 191.030184 
L 211.061567 192.409155 
L 211.422696 192.676053 
L 211.783824 192.676053 
L 212.144953 193.076399 
L 212.506082 193.298814 
L 212.86721 194.766751 
L 213.228339 194.766751 
L 213.589467 195.241236 
L 214.311724 195.686065 
L 214.672853 196.471931 
L 215.033981 196.471931 
L 215.39511 198.088144 
L 216.478495 198.088144 
L 217.561881 199.704358 
L 217.923009 199.704358 
L 218.284138 199.88229 
L 218.645266 199.88229 
L 219.006395 200.060222 
L 219.367524 201.720918 
L 219.728652 201.928505 
L 220.089781 201.928505 
L 220.812038 202.417818 
L 221.173166 202.417818 
L 221.534295 204.345412 
L 221.895423 205.11645 
L 222.256552 205.501969 
L 222.61768 205.501969 
L 223.339937 205.917143 
L 223.701066 207.488873 
L 224.062194 207.488873 
L 224.423323 207.933703 
L 224.784451 208.14129 
L 225.14558 209.238536 
L 225.506708 209.238536 
L 225.867837 209.624055 
L 226.590094 209.624055 
L 226.951223 209.801987 
L 227.312351 209.801987 
L 227.67348 210.039229 
L 228.034608 210.039229 
L 228.395737 211.255096 
L 228.756865 211.255096 
L 229.479122 212.456136 
L 229.840251 212.456136 
L 230.562508 212.826827 
L 232.007022 212.826827 
L 232.36815 213.034414 
L 232.729279 214.38373 
L 233.090408 214.38373 
L 233.451536 215.154768 
L 233.812665 215.480976 
L 235.257179 215.480976 
L 235.618307 215.688563 
L 235.979436 219.024784 
L 236.340564 219.024784 
L 237.062821 219.499268 
L 237.42395 219.716741 
L 238.146207 219.716741 
L 238.507335 219.879845 
L 238.868464 219.879845 
L 239.229592 220.146742 
L 239.590721 220.146742 
L 239.95185 220.309847 
L 240.312978 220.309847 
L 240.674107 220.517434 
L 241.035235 220.517434 
L 241.396364 220.695365 
L 241.757492 220.695365 
L 242.118621 220.873297 
L 242.479749 220.873297 
L 242.840878 221.080884 
L 243.202006 222.548821 
L 245.368777 222.548821 
L 245.729906 223.601584 
L 246.091034 223.601584 
L 246.452163 224.13538 
L 246.813292 224.13538 
L 247.535549 224.535726 
L 248.257806 224.535726 
L 248.618934 226.048146 
L 248.980063 226.048146 
L 249.341191 226.552286 
L 250.063448 226.552286 
L 250.424577 226.759874 
L 250.785705 226.759874 
L 251.146834 226.922978 
L 251.869091 226.922978 
L 252.591348 227.842292 
L 252.952476 227.842292 
L 253.313605 228.1685 
L 254.035862 228.1685 
L 254.396991 228.405743 
L 254.758119 228.405743 
L 255.119248 228.642985 
L 255.480376 229.013676 
L 255.841505 229.013676 
L 256.202633 229.547471 
L 256.92489 229.547471 
L 257.286019 229.844024 
L 258.369404 229.844024 
L 258.730533 230.229543 
L 259.813918 230.229543 
L 260.175047 231.519549 
L 260.536176 231.519549 
L 260.897304 232.972658 
L 261.258433 233.209901 
L 262.341818 233.209901 
L 262.702947 234.974391 
L 263.064075 234.974391 
L 263.425204 235.241288 
L 263.786332 235.241288 
L 264.508589 235.686118 
L 264.869718 236.190258 
L 265.591975 236.190258 
L 266.314232 236.635087 
L 267.758746 236.635087 
L 268.481003 237.035434 
L 269.564389 237.035434 
L 269.925517 237.272676 
L 270.286646 237.806471 
L 271.73116 237.806471 
L 272.092288 238.295784 
L 273.175674 238.295784 
L 273.536803 238.710958 
L 273.897931 238.710958 
L 274.25906 238.88889 
L 275.342445 238.88889 
L 275.703574 239.659927 
L 276.064702 239.823032 
L 276.425831 240.356827 
L 276.786959 240.356827 
L 277.509216 241.483728 
L 277.870345 242.062007 
L 278.231473 242.299249 
L 278.592602 243.752358 
L 280.398245 244.894087 
L 281.842759 244.894087 
L 282.203887 245.19064 
L 284.00953 245.19064 
L 284.731787 245.754091 
L 285.092915 245.754091 
L 285.454044 246.717888 
L 285.815172 247.251683 
L 287.981944 247.251683 
L 288.343072 248.91238 
L 288.704201 249.060656 
L 289.787586 249.060656 
L 290.148715 249.535141 
L 290.870972 249.535141 
L 291.2321 250.187558 
L 291.593229 250.187558 
L 291.954357 250.335834 
L 292.315486 250.335834 
L 292.676614 250.573077 
L 293.398871 250.573077 
L 294.121129 251.077217 
L 296.649028 251.077217 
L 297.010157 253.19757 
L 297.371285 253.19757 
L 297.732414 254.621025 
L 298.815799 256.148272 
L 299.538056 256.148272 
L 299.899185 256.978621 
L 300.621442 256.978621 
L 300.982571 257.245518 
L 303.149342 257.245518 
L 303.871599 257.690348 
L 304.232727 257.690348 
L 304.593856 258.283454 
L 306.760627 258.283454 
L 307.121755 258.520696 
L 307.844013 258.520696 
L 308.205141 259.751391 
L 309.649655 259.751391 
L 310.010784 260.047944 
L 310.371912 260.759671 
L 310.733041 260.759671 
L 311.094169 260.967258 
L 311.455298 260.967258 
L 311.816426 261.323122 
L 313.26094 261.323122 
L 313.622069 261.530709 
L 316.511097 261.530709 
L 316.872226 262.420367 
L 318.31674 262.420367 
L 318.677868 264.377617 
L 319.038997 264.377617 
L 319.761254 265.207965 
L 321.205768 265.207965 
L 321.566897 266.171762 
L 323.372539 266.171762 
L 323.733668 266.646247 
L 324.094796 267.44694 
L 324.455925 267.44694 
L 324.817053 268.040046 
L 325.900439 268.040046 
L 326.622696 268.45522 
L 327.706082 268.45522 
L 328.06721 268.603497 
L 328.428339 268.90005 
L 331.678495 268.90005 
L 332.039624 269.077982 
L 333.123009 269.077982 
L 333.484138 269.433845 
L 333.845266 269.433845 
L 334.206395 269.96764 
L 334.928652 269.96764 
L 335.289781 270.264193 
L 335.650909 270.264193 
L 336.012038 270.47178 
L 337.81768 270.47178 
L 338.178809 270.649712 
L 339.623323 270.649712 
L 339.984451 270.886955 
L 340.34558 271.42075 
L 342.87348 271.42075 
L 343.234608 271.657992 
L 343.956865 271.657992 
L 344.317994 273.125929 
L 344.679122 273.318689 
L 346.484765 273.318689 
L 346.845893 273.555931 
L 347.207022 273.555931 
L 347.56815 273.763518 
L 349.373793 273.763518 
L 349.734922 274.060071 
L 350.457179 274.060071 
L 350.818307 274.534556 
L 351.540564 274.994213 
L 352.985078 274.994213 
L 353.346207 275.2018 
L 354.790721 275.2018 
L 355.15185 275.616974 
L 355.512978 275.824561 
L 356.235235 275.824561 
L 356.596364 275.943183 
L 357.318621 275.943183 
L 357.679749 276.091459 
L 359.124263 276.091459 
L 359.485392 276.269391 
L 359.84652 276.743876 
L 361.291034 276.743876 
L 361.652163 277.099739 
L 364.541191 277.099739 
L 365.624577 277.692845 
L 366.346834 277.692845 
L 366.707962 277.841122 
L 367.069091 277.841122 
L 367.430219 278.256296 
L 367.791348 278.256296 
L 368.152476 279.323886 
L 369.958119 279.323886 
L 370.319248 279.531474 
L 371.041505 279.531474 
L 371.402633 279.768716 
L 372.486019 279.768716 
L 373.569404 280.124579 
L 374.65279 280.124579 
L 375.013918 282.20045 
L 377.18069 282.20045 
L 377.541818 282.378382 
L 379.347461 282.378382 
L 379.708589 282.585969 
L 384.042132 282.585969 
L 384.40326 283.119764 
L 386.208903 283.119764 
L 386.570031 283.594249 
L 386.93116 283.742526 
L 395.237116 283.742526 
L 395.598245 284.365287 
L 397.765016 284.365287 
L 398.126144 284.513563 
L 398.487273 284.513563 
L 398.487273 284.513563 
" style="fill:none;stroke:#0000ff;stroke-linecap:square;stroke-width:1.5;"/>
   </g>
   <g id="line2d_13">
    <path clip-path="url(#p928d91fe17)" d="M 73.832727 242.624028 
L 74.916113 242.42826 
L 75.63837 242.022939 
L 77.082884 241.831784 
L 77.444013 241.665655 
L 77.805141 241.643364 
L 78.527398 241.345233 
L 79.249655 241.345233 
L 80.333041 240.856539 
L 81.055298 240.737848 
L 81.777555 240.507506 
L 82.138683 240.488194 
L 83.222069 240.067677 
L 85.027712 239.465789 
L 85.38884 239.22289 
L 85.749969 239.210642 
L 86.111097 238.924534 
L 87.194483 238.620909 
L 87.555611 238.278013 
L 88.277868 238.059093 
L 89.361254 237.759386 
L 90.083511 237.531864 
L 90.444639 237.432166 
L 90.805768 237.102865 
L 91.889154 236.791503 
L 92.972539 236.783297 
L 93.694796 236.335425 
L 94.055925 236.337489 
L 94.417053 236.206989 
L 95.13931 236.190757 
L 95.861567 235.901311 
L 96.222696 235.562029 
L 98.028339 234.931217 
L 98.389467 234.882376 
L 99.472853 234.195522 
L 99.833981 234.183922 
L 100.917367 233.650105 
L 101.278495 233.63107 
L 101.639624 233.35414 
L 104.167524 232.77397 
L 104.889781 232.621376 
L 105.250909 232.328344 
L 108.501066 231.236141 
L 108.862194 231.179801 
L 109.223323 230.84321 
L 109.584451 230.784544 
L 109.94558 230.395144 
L 110.306708 230.289754 
L 110.667837 229.937887 
L 111.751223 229.703196 
L 112.112351 229.387611 
L 113.195737 229.145109 
L 114.640251 228.347841 
L 115.001379 228.368376 
L 115.362508 228.016415 
L 117.16815 227.29709 
L 117.529279 227.019136 
L 118.251536 226.990263 
L 118.973793 226.497928 
L 119.69605 226.405788 
L 120.418307 226.47819 
L 121.140564 226.174772 
L 121.501693 226.253616 
L 122.585078 225.802747 
L 122.946207 226.14276 
L 123.307335 226.089656 
L 123.668464 226.32277 
L 124.029592 225.855416 
L 124.390721 226.009296 
L 125.112978 225.198131 
L 125.474107 224.816317 
L 126.196364 224.573972 
L 126.918621 224.373107 
L 127.279749 224.417559 
L 127.640878 224.255854 
L 128.002006 223.970145 
L 128.363135 223.862513 
L 128.724263 223.936439 
L 129.085392 223.681536 
L 129.44652 224.085584 
L 131.97442 222.921747 
L 132.335549 222.789162 
L 133.057806 222.993818 
L 133.418934 222.850326 
L 133.780063 223.153716 
L 135.224577 222.556005 
L 135.585705 222.66391 
L 135.946834 222.47558 
L 136.669091 222.449418 
L 137.391348 222.28383 
L 138.113605 221.717569 
L 138.474734 221.597735 
L 138.835862 221.84602 
L 139.919248 221.501262 
L 140.641505 221.320799 
L 141.002633 221.691922 
L 142.447147 221.161109 
L 142.808276 221.388771 
L 143.169404 221.356797 
L 143.530533 220.940531 
L 143.891661 220.978324 
L 144.25279 220.894652 
L 144.613918 220.993054 
L 144.975047 221.273334 
L 145.336176 222.664492 
L 145.697304 222.457475 
L 146.058433 222.557375 
L 146.419561 222.504602 
L 146.78069 222.917186 
L 147.141818 223.008429 
L 147.502947 222.82691 
L 148.225204 223.051656 
L 148.586332 222.960063 
L 148.947461 223.29739 
L 149.669718 222.756086 
L 150.030846 223.161927 
L 150.391975 222.981531 
L 150.753103 222.586355 
L 151.475361 222.38991 
L 151.836489 223.0401 
L 152.558746 222.627114 
L 152.919875 222.436078 
L 153.642132 222.520031 
L 154.00326 222.737947 
L 154.364389 222.559156 
L 155.447774 223.206181 
L 156.170031 222.92864 
L 156.53116 222.986893 
L 156.892288 223.305797 
L 157.253417 223.067934 
L 157.614545 223.720041 
L 157.975674 223.513396 
L 158.336803 222.764751 
L 158.697931 222.280014 
L 159.05906 222.492562 
L 159.781317 222.53895 
L 160.142445 223.060764 
L 160.503574 223.147124 
L 160.864702 223.011978 
L 161.225831 223.106362 
L 161.586959 223.826436 
L 161.948088 223.617822 
L 162.309216 223.613309 
L 162.670345 223.882637 
L 163.031473 223.957619 
L 163.392602 223.846545 
L 163.75373 223.960248 
L 164.114859 224.34103 
L 164.837116 223.783814 
L 165.198245 223.988034 
L 165.559373 223.976525 
L 165.920502 224.365115 
L 166.28163 224.244533 
L 166.642759 224.848033 
L 167.003887 224.462314 
L 167.365016 224.525889 
L 168.087273 225.142125 
L 168.448401 224.846142 
L 168.80953 224.723905 
L 169.170658 224.750032 
L 169.531787 224.46125 
L 170.254044 224.339384 
L 170.615172 224.900132 
L 170.976301 225.016398 
L 171.698558 224.891442 
L 172.059687 224.759883 
L 172.420815 224.78025 
L 172.781944 225.170926 
L 173.143072 225.838756 
L 173.865329 225.338146 
L 174.226458 225.35179 
L 174.587586 226.220188 
L 174.948715 226.204757 
L 175.309843 226.495264 
L 175.670972 226.323157 
L 176.0321 227.142303 
L 177.476614 227.425252 
L 177.837743 226.879824 
L 178.56 226.805499 
L 178.921129 226.569204 
L 179.282257 226.48284 
L 179.643386 228.84 
L 180.004514 229.005951 
L 180.726771 228.911919 
L 181.0879 229.203932 
L 181.449028 229.334253 
L 181.810157 230.092509 
L 182.532414 230.080782 
L 182.893542 230.310706 
L 183.254671 230.693779 
L 183.615799 230.597814 
L 183.976928 230.911445 
L 184.338056 232.615875 
L 184.699185 232.428974 
L 185.060313 232.839856 
L 185.421442 232.894428 
L 185.782571 233.469389 
L 186.143699 233.175759 
L 186.504828 234.517578 
L 188.31047 234.291211 
L 189.393856 234.469361 
L 190.116113 234.320803 
L 190.477241 234.503837 
L 190.83837 235.189534 
L 191.199498 235.573862 
L 191.560627 235.582111 
L 191.921755 235.844538 
L 192.282884 235.905267 
L 192.644013 236.424078 
L 193.005141 236.637992 
L 193.36627 236.523039 
L 193.727398 237.509509 
L 194.088527 237.489471 
L 194.449655 238.867019 
L 194.810784 239.523956 
L 195.171912 239.509843 
L 195.533041 239.916079 
L 196.616426 239.835813 
L 196.977555 239.835813 
L 197.338683 241.253227 
L 198.06094 240.352164 
L 198.422069 240.553661 
L 198.783197 241.163138 
L 199.144326 240.950023 
L 199.866583 241.076237 
L 200.227712 241.222648 
L 200.58884 241.152813 
L 200.949969 240.889871 
L 201.672226 240.774602 
L 202.033354 241.296889 
L 202.394483 241.283292 
L 202.755611 242.050989 
L 203.477868 242.441179 
L 204.200125 242.699081 
L 204.561254 242.86003 
L 205.283511 242.729448 
L 205.644639 242.914574 
L 206.005768 242.914574 
L 206.366897 243.172337 
L 206.728025 243.609654 
L 207.089154 243.329186 
L 207.450282 243.329186 
L 208.172539 242.961052 
L 209.255925 243.116785 
L 209.617053 242.818515 
L 210.700439 242.459927 
L 211.061567 243.653581 
L 211.422696 243.786529 
L 211.783824 243.687472 
L 212.144953 244.016409 
L 212.506082 243.772635 
L 212.86721 244.725468 
L 213.228339 244.638509 
L 213.589467 244.866003 
L 214.311724 245.041413 
L 214.672853 245.320737 
L 215.033981 245.217852 
L 215.39511 245.676689 
L 215.756238 245.551323 
L 216.478495 245.516774 
L 216.839624 245.791771 
L 217.200752 245.681371 
L 217.561881 245.870494 
L 218.645266 245.877929 
L 219.006395 245.939156 
L 219.367524 246.210667 
L 219.728652 246.869563 
L 220.089781 246.59923 
L 220.450909 246.966647 
L 221.173166 246.761792 
L 221.534295 247.884037 
L 221.895423 248.075742 
L 223.339937 248.248187 
L 223.701066 248.583754 
L 224.062194 248.377242 
L 224.784451 248.618859 
L 225.14558 249.620185 
L 228.034608 249.699937 
L 228.395737 250.322271 
L 228.756865 250.322271 
L 229.117994 250.440516 
L 229.479122 251.377803 
L 229.840251 251.157164 
L 230.201379 251.215835 
L 230.562508 251.07476 
L 232.36815 251.105196 
L 232.729279 252.703985 
L 233.090408 252.544599 
L 233.812665 252.820151 
L 234.89605 252.811358 
L 235.257179 252.58671 
L 235.618307 252.657742 
L 235.979436 254.498832 
L 236.340564 254.477488 
L 236.701693 254.627711 
L 237.062821 254.368432 
L 237.42395 254.999181 
L 242.479749 254.758191 
L 242.840878 254.547848 
L 243.202006 255.70534 
L 244.285392 255.593633 
L 245.007649 255.433398 
L 245.368777 255.412474 
L 245.729906 256.402896 
L 246.091034 256.402896 
L 246.452163 256.880831 
L 247.896677 256.86023 
L 248.257806 256.536531 
L 248.618934 257.905852 
L 250.785705 257.857484 
L 251.146834 258.16377 
L 251.869091 258.046305 
L 252.230219 258.471678 
L 252.591348 258.628828 
L 252.952476 258.595573 
L 253.313605 258.769907 
L 254.758119 258.831311 
L 255.480376 259.050606 
L 255.841505 259.017195 
L 256.202633 259.328684 
L 256.92489 259.222076 
L 257.286019 259.363748 
L 259.813918 259.253644 
L 260.175047 260.040551 
L 260.536176 259.998481 
L 260.897304 261.028137 
L 261.619561 261.083006 
L 262.341818 261.034407 
L 262.702947 262.379874 
L 263.786332 262.398846 
L 264.508589 262.646881 
L 265.591975 262.458961 
L 266.314232 262.613059 
L 266.675361 262.254274 
L 271.73116 262.192447 
L 272.092288 262.463437 
L 273.175674 262.423851 
L 273.536803 263.118117 
L 275.342445 263.044783 
L 275.703574 263.519317 
L 276.064702 263.557327 
L 276.425831 263.791677 
L 276.786959 263.755699 
L 277.148088 264.056068 
L 277.509216 264.159991 
L 277.870345 264.455054 
L 278.231473 264.584735 
L 278.592602 265.33595 
L 279.314859 265.440326 
L 280.759373 265.721355 
L 284.370658 265.805889 
L 284.731787 266.326755 
L 285.092915 266.238967 
L 285.454044 266.758917 
L 285.815172 266.976025 
L 287.259687 266.932116 
L 287.981944 266.932116 
L 288.343072 267.984528 
L 289.065329 268.039973 
L 290.870972 267.993615 
L 291.2321 268.509094 
L 291.954357 268.539142 
L 292.315486 268.539142 
L 292.676614 268.662981 
L 293.398871 268.653966 
L 294.482257 268.91727 
L 296.649028 268.863346 
L 297.010157 271.583866 
L 297.371285 271.573235 
L 297.732414 273.656431 
L 298.454671 274.221052 
L 298.815799 274.035035 
L 299.538056 274.017061 
L 299.899185 274.543813 
L 300.621442 274.543813 
L 300.982571 274.701584 
L 302.788213 274.621336 
L 303.149342 274.605667 
L 303.871599 274.786977 
L 304.232727 274.734378 
L 304.593856 274.93249 
L 306.03837 274.914782 
L 306.760627 274.806527 
L 307.121755 274.96469 
L 307.844013 274.885381 
L 308.205141 275.909817 
L 309.649655 275.852733 
L 310.371912 276.444812 
L 310.733041 276.444812 
L 311.094169 277.040839 
L 311.455298 277.040839 
L 311.816426 277.211049 
L 313.622069 277.137111 
L 316.511097 277.088349 
L 316.872226 277.50479 
L 318.31674 277.438799 
L 318.677868 279.572825 
L 319.038997 279.572825 
L 319.400125 279.720743 
L 321.205768 279.661211 
L 321.566897 280.312707 
L 322.289154 280.232644 
L 323.372539 280.188265 
L 323.733668 280.411627 
L 324.094796 281.059721 
L 324.455925 281.059721 
L 324.817053 281.366497 
L 327.706082 281.453686 
L 328.06721 281.53058 
L 328.428339 281.825034 
L 328.789467 281.671281 
L 331.678495 281.662085 
L 332.039624 281.949825 
L 333.123009 281.949825 
L 333.484138 282.34623 
L 333.845266 282.339135 
L 334.206395 282.935617 
L 337.095423 282.876384 
L 337.81768 282.775225 
L 339.984451 282.925053 
L 340.34558 283.198114 
L 342.87348 283.163332 
L 343.234608 283.321504 
L 343.956865 283.208822 
L 344.317994 284.701881 
L 345.401379 284.744376 
L 347.207022 284.795366 
L 347.56815 284.933758 
L 350.09605 284.949057 
L 350.457179 284.791001 
L 351.179436 285.301935 
L 351.540564 285.803351 
L 352.985078 285.796765 
L 353.346207 285.935157 
L 354.790721 285.935157 
L 355.15185 286.16721 
L 355.874107 286.255285 
L 357.318621 286.291584 
L 358.040878 286.368645 
L 358.402006 286.212402 
L 359.124263 286.175683 
L 359.485392 286.247766 
L 359.84652 286.520723 
L 361.291034 286.520723 
L 361.652163 286.783808 
L 364.90232 286.844997 
L 366.346834 286.985143 
L 367.069091 286.986427 
L 367.430219 287.17896 
L 367.791348 287.0907 
L 368.152476 288.260931 
L 369.958119 288.248062 
L 370.319248 288.386494 
L 371.041505 288.386494 
L 371.402633 288.527565 
L 372.847147 288.587952 
L 373.569404 288.681597 
L 374.65279 288.681597 
L 375.013918 290.628159 
L 376.819561 290.531721 
L 377.18069 290.509881 
L 377.902947 290.602334 
L 384.042132 290.62781 
L 384.40326 291.061785 
L 386.208903 291.061785 
L 386.570031 291.430375 
L 386.93116 291.490028 
L 387.653417 291.378191 
L 392.348088 291.29333 
L 393.070345 291.229023 
L 395.237116 291.229023 
L 395.598245 291.682872 
L 398.487273 291.726144 
L 398.487273 291.726144 
" style="fill:none;stroke:#008000;stroke-linecap:square;stroke-width:1.5;"/>
   </g>
   <g id="patch_3">
    <path d="M 57.6 307.584 
L 57.6 41.472 
" style="fill:none;stroke:#000000;stroke-linecap:square;stroke-linejoin:miter;stroke-width:0.8;"/>
   </g>
   <g id="patch_4">
    <path d="M 414.72 307.584 
L 414.72 41.472 
" style="fill:none;stroke:#000000;stroke-linecap:square;stroke-linejoin:miter;stroke-width:0.8;"/>
   </g>
   <g id="patch_5">
    <path d="M 57.6 307.584 
L 414.72 307.584 
" style="fill:none;stroke:#000000;stroke-linecap:square;stroke-linejoin:miter;stroke-width:0.8;"/>
   </g>
   <g id="patch_6">
    <path d="M 57.6 41.472 
L 414.72 41.472 
" style="fill:none;stroke:#000000;stroke-linecap:square;stroke-linejoin:miter;stroke-width:0.8;"/>
   </g>
   <g id="legend_1">
    <g id="patch_7">
     <path d="M 64.6 93.506375 
L 146.917188 93.506375 
Q 148.917188 93.506375 148.917188 91.506375 
L 148.917188 48.472 
Q 148.917188 46.472 146.917188 46.472 
L 64.6 46.472 
Q 62.6 46.472 62.6 48.472 
L 62.6 91.506375 
Q 62.6 93.506375 64.6 93.506375 
z
" style="fill:#ffffff;opacity:0.8;stroke:#cccccc;stroke-linejoin:miter;"/>
    </g>
    <g id="line2d_14">
     <path d="M 66.6 54.570438 
L 86.6 54.570438 
" style="fill:none;stroke:#ff0000;stroke-linecap:square;stroke-width:1.5;"/>
    </g>
    <g id="line2d_15"/>
    <g id="text_13">
     <!-- precisions -->
     <g transform="translate(94.6 58.070438)scale(0.1 -0.1)">
      <defs>
       <path d="M 18.109375 8.203125 
L 18.109375 -20.796875 
L 9.078125 -20.796875 
L 9.078125 54.6875 
L 18.109375 54.6875 
L 18.109375 46.390625 
Q 20.953125 51.265625 25.265625 53.625 
Q 29.59375 56 35.59375 56 
Q 45.5625 56 51.78125 48.09375 
Q 58.015625 40.1875 58.015625 27.296875 
Q 58.015625 14.40625 51.78125 6.484375 
Q 45.5625 -1.421875 35.59375 -1.421875 
Q 29.59375 -1.421875 25.265625 0.953125 
Q 20.953125 3.328125 18.109375 8.203125 
z
M 48.6875 27.296875 
Q 48.6875 37.203125 44.609375 42.84375 
Q 40.53125 48.484375 33.40625 48.484375 
Q 26.265625 48.484375 22.1875 42.84375 
Q 18.109375 37.203125 18.109375 27.296875 
Q 18.109375 17.390625 22.1875 11.75 
Q 26.265625 6.109375 33.40625 6.109375 
Q 40.53125 6.109375 44.609375 11.75 
Q 48.6875 17.390625 48.6875 27.296875 
z
" id="DejaVuSans-112"/>
       <path d="M 9.421875 54.6875 
L 18.40625 54.6875 
L 18.40625 0 
L 9.421875 0 
z
M 9.421875 75.984375 
L 18.40625 75.984375 
L 18.40625 64.59375 
L 9.421875 64.59375 
z
" id="DejaVuSans-105"/>
       <path d="M 54.890625 33.015625 
L 54.890625 0 
L 45.90625 0 
L 45.90625 32.71875 
Q 45.90625 40.484375 42.875 44.328125 
Q 39.84375 48.1875 33.796875 48.1875 
Q 26.515625 48.1875 22.3125 43.546875 
Q 18.109375 38.921875 18.109375 30.90625 
L 18.109375 0 
L 9.078125 0 
L 9.078125 54.6875 
L 18.109375 54.6875 
L 18.109375 46.1875 
Q 21.34375 51.125 25.703125 53.5625 
Q 30.078125 56 35.796875 56 
Q 45.21875 56 50.046875 50.171875 
Q 54.890625 44.34375 54.890625 33.015625 
z
" id="DejaVuSans-110"/>
      </defs>
      <use xlink:href="#DejaVuSans-112"/>
      <use x="63.476562" xlink:href="#DejaVuSans-114"/>
      <use x="102.339844" xlink:href="#DejaVuSans-101"/>
      <use x="163.863281" xlink:href="#DejaVuSans-99"/>
      <use x="218.84375" xlink:href="#DejaVuSans-105"/>
      <use x="246.626953" xlink:href="#DejaVuSans-115"/>
      <use x="298.726562" xlink:href="#DejaVuSans-105"/>
      <use x="326.509766" xlink:href="#DejaVuSans-111"/>
      <use x="387.691406" xlink:href="#DejaVuSans-110"/>
      <use x="451.070312" xlink:href="#DejaVuSans-115"/>
     </g>
    </g>
    <g id="line2d_16">
     <path d="M 66.6 69.248563 
L 86.6 69.248563 
" style="fill:none;stroke:#0000ff;stroke-linecap:square;stroke-width:1.5;"/>
    </g>
    <g id="line2d_17"/>
    <g id="text_14">
     <!-- recalls -->
     <g transform="translate(94.6 72.748563)scale(0.1 -0.1)">
      <defs>
       <path d="M 34.28125 27.484375 
Q 23.390625 27.484375 19.1875 25 
Q 14.984375 22.515625 14.984375 16.5 
Q 14.984375 11.71875 18.140625 8.90625 
Q 21.296875 6.109375 26.703125 6.109375 
Q 34.1875 6.109375 38.703125 11.40625 
Q 43.21875 16.703125 43.21875 25.484375 
L 43.21875 27.484375 
z
M 52.203125 31.203125 
L 52.203125 0 
L 43.21875 0 
L 43.21875 8.296875 
Q 40.140625 3.328125 35.546875 0.953125 
Q 30.953125 -1.421875 24.3125 -1.421875 
Q 15.921875 -1.421875 10.953125 3.296875 
Q 6 8.015625 6 15.921875 
Q 6 25.140625 12.171875 29.828125 
Q 18.359375 34.515625 30.609375 34.515625 
L 43.21875 34.515625 
L 43.21875 35.40625 
Q 43.21875 41.609375 39.140625 45 
Q 35.0625 48.390625 27.6875 48.390625 
Q 23 48.390625 18.546875 47.265625 
Q 14.109375 46.140625 10.015625 43.890625 
L 10.015625 52.203125 
Q 14.9375 54.109375 19.578125 55.046875 
Q 24.21875 56 28.609375 56 
Q 40.484375 56 46.34375 49.84375 
Q 52.203125 43.703125 52.203125 31.203125 
z
" id="DejaVuSans-97"/>
      </defs>
      <use xlink:href="#DejaVuSans-114"/>
      <use x="38.863281" xlink:href="#DejaVuSans-101"/>
      <use x="100.386719" xlink:href="#DejaVuSans-99"/>
      <use x="155.367188" xlink:href="#DejaVuSans-97"/>
      <use x="216.646484" xlink:href="#DejaVuSans-108"/>
      <use x="244.429688" xlink:href="#DejaVuSans-108"/>
      <use x="272.212891" xlink:href="#DejaVuSans-115"/>
     </g>
    </g>
    <g id="line2d_18">
     <path d="M 66.6 83.926688 
L 86.6 83.926688 
" style="fill:none;stroke:#008000;stroke-linecap:square;stroke-width:1.5;"/>
    </g>
    <g id="line2d_19"/>
    <g id="text_15">
     <!-- fscores -->
     <g transform="translate(94.6 87.426688)scale(0.1 -0.1)">
      <defs>
       <path d="M 37.109375 75.984375 
L 37.109375 68.5 
L 28.515625 68.5 
Q 23.6875 68.5 21.796875 66.546875 
Q 19.921875 64.59375 19.921875 59.515625 
L 19.921875 54.6875 
L 34.71875 54.6875 
L 34.71875 47.703125 
L 19.921875 47.703125 
L 19.921875 0 
L 10.890625 0 
L 10.890625 47.703125 
L 2.296875 47.703125 
L 2.296875 54.6875 
L 10.890625 54.6875 
L 10.890625 58.5 
Q 10.890625 67.625 15.140625 71.796875 
Q 19.390625 75.984375 28.609375 75.984375 
z
" id="DejaVuSans-102"/>
      </defs>
      <use xlink:href="#DejaVuSans-102"/>
      <use x="35.205078" xlink:href="#DejaVuSans-115"/>
      <use x="87.304688" xlink:href="#DejaVuSans-99"/>
      <use x="142.285156" xlink:href="#DejaVuSans-111"/>
      <use x="203.466797" xlink:href="#DejaVuSans-114"/>
      <use x="242.330078" xlink:href="#DejaVuSans-101"/>
      <use x="303.853516" xlink:href="#DejaVuSans-115"/>
     </g>
    </g>
   </g>
  </g>
 </g>
 <defs>
  <clipPath id="p928d91fe17">
   <rect height="266.112" width="357.12" x="57.6" y="41.472"/>
  </clipPath>
 </defs>
</svg>
